<?xml version="1.0" encoding="UTF-8" standalone="no" ?>
<!DOCTYPE svg PUBLIC "-//W3C//DTD SVG 1.1//EN" "http://www.w3.org/Graphics/SVG/1.1/DTD/svg11.dtd">
<svg xmlns="http://www.w3.org/2000/svg" xmlns:xlink="http://www.w3.org/1999/xlink" version="1.1" width="430.85755004882816" height="148.34351999999998" xml:space="preserve">
<desc>Created with Fabric.js 1.6.0-rc.1</desc>
<defs></defs>
  <g transform="translate(293.3 90.51) scale(1.86 1.86)">
   <text font-family="Ikaros" font-size="40" font-weight="normal" style="stroke: none; stroke-width: 1; stroke-dasharray: none; stroke-linecap: butt; stroke-linejoin: miter; stroke-miterlimit: 10; fill: #4f4f4f; fill-rule: nonzero; opacity: 1;" ><tspan x="-69.08" y="8.98" style="stroke: none; stroke-width: 0; stroke-dasharray: none; stroke-linecap: butt; stroke-linejoin: miter; stroke-miterlimit: 4; fill: #4f4f4f; fill-rule: ; opacity: 1;">n</tspan><tspan x="-47.44" y="8.98" style="stroke: none; stroke-width: 0; stroke-dasharray: none; stroke-linecap: butt; stroke-linejoin: miter; stroke-miterlimit: 4; fill: #4f4f4f; fill-rule: ; opacity: 1;">a</tspan><tspan x="-24.88" y="8.98" style="stroke: none; stroke-width: 0; stroke-dasharray: none; stroke-linecap: butt; stroke-linejoin: miter; stroke-miterlimit: 4; fill: #4f4f4f; fill-rule: ; opacity: 1;">m</tspan><tspan x="11.76" y="8.98" style="stroke: none; stroke-width: 0; stroke-dasharray: none; stroke-linecap: butt; stroke-linejoin: miter; stroke-miterlimit: 4; fill: #4f4f4f; fill-rule: ; opacity: 1;">j</tspan><tspan x="24.8" y="8.98" style="stroke: none; stroke-width: 0; stroke-dasharray: none; stroke-linecap: butt; stroke-linejoin: miter; stroke-miterlimit: 4; fill: #4f4f4f; fill-rule: ; opacity: 1;">o</tspan><tspan x="46.6" y="8.98" style="stroke: none; stroke-width: 0; stroke-dasharray: none; stroke-linecap: butt; stroke-linejoin: miter; stroke-miterlimit: 4; fill: #4f4f4f; fill-rule: ; opacity: 1;">b</tspan></text>
 </g>
<g style="stroke: none; stroke-width: 1; stroke-dasharray: none; stroke-linecap: butt; stroke-linejoin: miter; stroke-miterlimit: 10; fill: none; fill-rule: nonzero; opacity: 1;" transform="translate(9.999999999999993 10) scale(0.71 0.71)" >
  <path d="M 89.8 23.7 c -32.9 13.9 -44.5 64.7 -30.7 97.6 c 11.1 26.3 41.4 38.7 67.8 27.6 c 21.1 -8.9 30.9 -33.1 22.1 -54.2 c -7.1 -16.9 -26.5 -24.8 -43.4 -17.7 c 22.2 -9.4 47.8 1.1 57.2 23.3 c 11.7 27.8 -1.3 59.8 -29.1 71.5 C 99 186.4 59 170.1 44.4 135.4 C 26.1 92 46.5 42 89.8 23.7 z" style="stroke: none; stroke-width: 1; stroke-dasharray: none; stroke-linecap: butt; stroke-linejoin: miter; stroke-miterlimit: 10; fill: #BED630; fill-rule: nonzero; opacity: 1;" transform=" matrix(1 0 0 1 0 0) " stroke-linecap="round" />
  <path d="M 133.3 115.2 c 0 -0.8 0 -1.6 -0.1 -2.4 l 10.2 -4.8 c -0.2 -1.4 -0.5 -2.7 -0.9 -4.1 l -11.2 0.1 c -0.6 -1.5 -1.3 -3 -2.1 -4.4 l 7.1 -8.7 c -0.8 -1.1 -1.7 -2.2 -2.6 -3.3 l -10.1 5 c -1.2 -1.1 -2.5 -2.1 -3.8 -3 l 2.6 -10.9 c -1.2 -0.7 -2.5 -1.3 -3.8 -1.8 l -6.9 8.9 c -1.6 -0.5 -3.1 -0.8 -4.7 -1.1 l -2.4 -11 c -1.4 -0.1 -2.8 -0.1 -4.2 0 l -2.4 11 c -1.6 0.2 -3.2 0.6 -4.7 1.1 l -6.9 -8.9 c -1.3 0.5 -2.5 1.2 -3.8 1.8 l 2.6 10.9 c -1.3 0.9 -2.6 1.9 -3.8 3 l -10.1 -5 c -0.9 1 -1.8 2.1 -2.6 3.3 l 7.1 8.7 c -0.8 1.4 -1.5 2.9 -2.1 4.4 L 62.4 104 c -0.4 1.3 -0.7 2.7 -0.9 4.1 l 10.2 4.8 c -0.1 0.8 -0.1 1.6 -0.1 2.4 c 0 0.8 0 1.6 0.1 2.4 l -10.2 4.8 c 0.2 1.4 0.6 2.8 0.9 4.1 l 11.2 -0.1 c 0.6 1.5 1.3 3 2.1 4.4 l -7.1 8.7 c 0.8 1.1 1.7 2.2 2.6 3.3 l 10.1 -5 c 1.2 1.1 2.5 2.1 3.8 3 l -2.6 10.9 c 1.2 0.7 2.5 1.3 3.8 1.8 l 6.9 -8.9 c 1.5 0.5 3.1 0.8 4.8 1.1 l 2.4 11 c 0.7 0 1.4 0.1 2.1 0.1 c 0.7 0 1.4 0 2.1 -0.1 l 2.4 -11 c 1.6 -0.2 3.2 -0.6 4.7 -1.1 l 6.9 8.9 c 1.3 -0.5 2.6 -1.2 3.8 -1.8 l -2.6 -10.9 c 1.3 -0.9 2.6 -1.9 3.8 -3 l 10.1 5 c 0.9 -1 1.8 -2.1 2.6 -3.3 l -7.1 -8.7 c 0.8 -1.4 1.5 -2.9 2.1 -4.4 l 11.2 0.1 c 0.4 -1.3 0.7 -2.7 0.9 -4.1 l -10.2 -4.8 C 133.2 116.9 133.3 116.1 133.3 115.2 z" style="stroke: none; stroke-width: 1; stroke-dasharray: none; stroke-linecap: butt; stroke-linejoin: miter; stroke-miterlimit: 10; fill: #469DD6; fill-rule: nonzero; opacity: 1;" transform=" matrix(1 0 0 1 0 0) " stroke-linecap="round" />
  <path d="M 117.2 115.2 c 0 8.2 -6.6 14.8 -14.8 14.8 c -8.2 0 -14.8 -6.6 -14.8 -14.8 c 0 -8.2 6.6 -14.8 14.8 -14.8 C 110.6 100.4 117.2 107.1 117.2 115.2 z" style="stroke: none; stroke-width: 1; stroke-dasharray: none; stroke-linecap: butt; stroke-linejoin: miter; stroke-miterlimit: 10; fill: #F5F6F6; fill-rule: nonzero; opacity: 1;" transform=" matrix(1 0 0 1 0 0) " stroke-linecap="round" />
  <path d="M 113.1 115.2 c 0 5.9 -4.8 10.7 -10.7 10.7 c -5.9 0 -10.7 -4.8 -10.7 -10.7 s 4.8 -10.7 10.7 -10.7 C 108.3 104.6 113.1 109.3 113.1 115.2 z" style="stroke: none; stroke-width: 1; stroke-dasharray: none; stroke-linecap: butt; stroke-linejoin: miter; stroke-miterlimit: 10; fill: #189E8B; fill-rule: nonzero; opacity: 1;" transform=" matrix(1 0 0 1 0 0) " stroke-linecap="round" />
</g>
</svg>